<svg xmlns="http://www.w3.org/2000/svg" width="600" height="400" viewBox="0 0 600 400">
  <rect width="600" height="400" fill="#e2e8f0"/>
  <rect x="150" y="100" width="300" height="200" rx="6" fill="#b0bfcf"/>
  <rect x="170" y="120" width="260" height="50" rx="3" fill="#97a8b8"/>
  <rect x="170" y="180" width="260" height="50" rx="3" fill="#97a8b8"/>
  <rect x="170" y="240" width="260" height="50" rx="3" fill="#97a8b8"/>
  <circle cx="200" cy="145" r="8" fill="#7a8fa3"/>
  <circle cx="220" cy="145" r="8" fill="#7a8fa3"/>
  <circle cx="240" cy="145" r="8" fill="#7a8fa3"/>
  <circle cx="200" cy="205" r="8" fill="#7a8fa3"/>
  <circle cx="220" cy="205" r="8" fill="#7a8fa3"/>
  <circle cx="240" cy="205" r="8" fill="#7a8fa3"/>
  <circle cx="200" cy="265" r="8" fill="#7a8fa3"/>
  <circle cx="220" cy="265" r="8" fill="#7a8fa3"/>
  <circle cx="240" cy="265" r="8" fill="#7a8fa3"/>
  <rect x="460" y="80" width="40" height="220" rx="4" fill="#a0b2c4"/>
  <rect x="470" y="60" width="20" height="20" rx="2" fill="#8a9eb2"/>
  <rect x="100" y="80" width="40" height="220" rx="4" fill="#a0b2c4"/>
  <rect x="110" y="60" width="20" height="20" rx="2" fill="#8a9eb2"/>
  <rect x="0" y="300" width="600" height="100" fill="#c5d0dc"/>
</svg>
