<svg xmlns="http://www.w3.org/2000/svg" width="600" height="400" viewBox="0 0 600 400">
  <rect width="600" height="400" fill="#e6ecf2"/>
  <rect x="160" y="100" width="280" height="200" rx="6" fill="#b4c4d4"/>
  <rect x="260" y="70" width="80" height="30" rx="3" fill="#a0b0c2"/>
  <path d="M300 70 L280 100 L320 100 Z" fill="#a0b0c2"/>
  <rect x="180" y="120" width="30" height="40" rx="3" fill="#dce4ed"/>
  <rect x="225" y="120" width="30" height="40" rx="3" fill="#dce4ed"/>
  <rect x="270" y="120" width="30" height="40" rx="3" fill="#dce4ed"/>
  <rect x="315" y="120" width="30" height="40" rx="3" fill="#dce4ed"/>
  <rect x="360" y="120" width="30" height="40" rx="3" fill="#dce4ed"/>
  <rect x="405" y="120" width="15" height="40" rx="3" fill="#dce4ed"/>
  <rect x="180" y="175" width="30" height="40" rx="3" fill="#dce4ed"/>
  <rect x="225" y="175" width="30" height="40" rx="3" fill="#dce4ed"/>
  <rect x="270" y="175" width="30" height="40" rx="3" fill="#dce4ed"/>
  <rect x="315" y="175" width="30" height="40" rx="3" fill="#dce4ed"/>
  <rect x="360" y="175" width="30" height="40" rx="3" fill="#dce4ed"/>
  <rect x="270" y="240" width="60" height="60" rx="3" fill="#97a8b8"/>
  <rect x="0" y="300" width="600" height="100" fill="#c5d0dc"/>
  <circle cx="100" cy="160" r="50" fill="#c5d3e0"/>
  <circle cx="510" cy="170" r="40" fill="#c5d3e0"/>
</svg>
