<svg xmlns="http://www.w3.org/2000/svg" width="600" height="400" viewBox="0 0 600 400">
  <rect width="600" height="400" fill="#e4eaf1"/>
  <rect x="200" y="60" width="200" height="240" rx="6" fill="#a4b6c8"/>
  <rect x="215" y="80" width="40" height="30" rx="3" fill="#c8d4e0"/>
  <rect x="270" y="80" width="40" height="30" rx="3" fill="#c8d4e0"/>
  <rect x="325" y="80" width="60" height="30" rx="3" fill="#c8d4e0"/>
  <rect x="215" y="125" width="40" height="30" rx="3" fill="#c8d4e0"/>
  <rect x="270" y="125" width="40" height="30" rx="3" fill="#c8d4e0"/>
  <rect x="325" y="125" width="60" height="30" rx="3" fill="#c8d4e0"/>
  <rect x="215" y="170" width="40" height="30" rx="3" fill="#c8d4e0"/>
  <rect x="270" y="170" width="40" height="30" rx="3" fill="#c8d4e0"/>
  <rect x="325" y="170" width="60" height="30" rx="3" fill="#c8d4e0"/>
  <rect x="215" y="215" width="40" height="30" rx="3" fill="#c8d4e0"/>
  <rect x="270" y="215" width="40" height="30" rx="3" fill="#c8d4e0"/>
  <rect x="325" y="215" width="60" height="30" rx="3" fill="#c8d4e0"/>
  <rect x="270" y="255" width="60" height="45" rx="3" fill="#8a9eb2"/>
  <rect x="0" y="300" width="600" height="100" fill="#c5d0dc"/>
  <circle cx="80" cy="200" r="50" fill="#c5d3e0"/>
  <circle cx="530" cy="190" r="45" fill="#c5d3e0"/>
</svg>
