<svg xmlns="http://www.w3.org/2000/svg" width="600" height="400" viewBox="0 0 600 400">
  <rect width="600" height="400" fill="#e8ecf2"/>
  <rect x="80" y="160" width="140" height="140" rx="6" fill="#b4c2d2"/>
  <path d="M80 160 L150 110 L220 160 Z" fill="#a0b0c2"/>
  <rect x="110" y="200" width="24" height="28" rx="2" fill="#dce4ed"/>
  <rect x="150" y="200" width="24" height="28" rx="2" fill="#dce4ed"/>
  <rect x="120" y="260" width="40" height="40" rx="2" fill="#97a8b8"/>
  <rect x="260" y="160" width="140" height="140" rx="6" fill="#b4c2d2"/>
  <path d="M260 160 L330 110 L400 160 Z" fill="#a0b0c2"/>
  <rect x="290" y="200" width="24" height="28" rx="2" fill="#dce4ed"/>
  <rect x="330" y="200" width="24" height="28" rx="2" fill="#dce4ed"/>
  <rect x="300" y="260" width="40" height="40" rx="2" fill="#97a8b8"/>
  <rect x="440" y="160" width="140" height="140" rx="6" fill="#b4c2d2"/>
  <path d="M440 160 L510 110 L580 160 Z" fill="#a0b0c2"/>
  <rect x="470" y="200" width="24" height="28" rx="2" fill="#dce4ed"/>
  <rect x="510" y="200" width="24" height="28" rx="2" fill="#dce4ed"/>
  <rect x="480" y="260" width="40" height="40" rx="2" fill="#97a8b8"/>
  <rect x="0" y="300" width="600" height="100" fill="#c5d0dc"/>
  <circle cx="40" cy="80" r="30" fill="#d4dce6"/>
</svg>
