<svg xmlns="http://www.w3.org/2000/svg" width="600" height="400" viewBox="0 0 600 400">
  <rect width="600" height="400" fill="#e8edf3"/>
  <rect x="180" y="120" width="80" height="160" rx="4" fill="#b8c6d6"/>
  <rect x="270" y="80" width="60" height="200" rx="4" fill="#a0b4c8"/>
  <rect x="340" y="140" width="90" height="140" rx="4" fill="#b8c6d6"/>
  <rect x="195" y="140" width="14" height="18" rx="2" fill="#dce4ed"/>
  <rect x="220" y="140" width="14" height="18" rx="2" fill="#dce4ed"/>
  <rect x="195" y="170" width="14" height="18" rx="2" fill="#dce4ed"/>
  <rect x="220" y="170" width="14" height="18" rx="2" fill="#dce4ed"/>
  <rect x="195" y="200" width="14" height="18" rx="2" fill="#dce4ed"/>
  <rect x="220" y="200" width="14" height="18" rx="2" fill="#dce4ed"/>
  <rect x="282" y="100" width="12" height="16" rx="2" fill="#dce4ed"/>
  <rect x="304" y="100" width="12" height="16" rx="2" fill="#dce4ed"/>
  <rect x="282" y="130" width="12" height="16" rx="2" fill="#dce4ed"/>
  <rect x="304" y="130" width="12" height="16" rx="2" fill="#dce4ed"/>
  <rect x="282" y="160" width="12" height="16" rx="2" fill="#dce4ed"/>
  <rect x="304" y="160" width="12" height="16" rx="2" fill="#dce4ed"/>
  <rect x="355" y="160" width="14" height="18" rx="2" fill="#dce4ed"/>
  <rect x="380" y="160" width="14" height="18" rx="2" fill="#dce4ed"/>
  <rect x="405" y="160" width="14" height="18" rx="2" fill="#dce4ed"/>
  <rect x="355" y="195" width="14" height="18" rx="2" fill="#dce4ed"/>
  <rect x="380" y="195" width="14" height="18" rx="2" fill="#dce4ed"/>
  <rect x="405" y="195" width="14" height="18" rx="2" fill="#dce4ed"/>
  <rect x="0" y="280" width="600" height="120" fill="#c8d4e0"/>
  <circle cx="120" cy="240" r="40" fill="#c8d4e0"/>
  <circle cx="490" cy="250" r="30" fill="#c8d4e0"/>
</svg>
